<?xml version="1.0" standalone="no"?><!DOCTYPE svg PUBLIC "-//W3C//DTD SVG 1.1//EN" "http://www.w3.org/Graphics/SVG/1.1/DTD/svg11.dtd"><svg t="1767516574204" class="icon" viewBox="0 0 1024 1024" version="1.1" xmlns="http://www.w3.org/2000/svg" p-id="20181" xmlns:xlink="http://www.w3.org/1999/xlink" width="48" height="48"><path d="M793.448296 798.852741H290.967704c-57.268148 0-105.396148-44.73363-109.568-101.850074l-31.478519-431.066074a85.428148 85.428148 0 0 0-25.998222-55.409778L17.464889 108.032a28.444444 28.444444 0 1 1 39.442963-40.978963l106.477037 102.494815a142.298074 142.298074 0 0 1 43.292444 92.235852l31.478519 431.066074a53.191111 53.191111 0 0 0 52.830815 49.114074h502.480592a60.984889 60.984889 0 0 0 59.221334-46.212741l102.456888-408.651852c2.332444-9.291852 0.303407-18.944-5.594074-26.472296s-14.753185-11.870815-24.329481-11.870815H391.86963a28.444444 28.444444 0 1 1 0-56.888889H925.202963c27.230815 0 52.451556 12.306963 69.176889 33.773037s22.528 48.905481 15.928889 75.301926l-102.456889 408.670815a117.854815 117.854815 0 0 1-114.403556 89.239704z" fill="#707070" p-id="20182"></path><path d="M727.950222 921.012148m-62.501926 0a62.501926 62.501926 0 1 0 125.003852 0 62.501926 62.501926 0 1 0-125.003852 0Z" fill="#707070" p-id="20183"></path><path d="M368.545185 921.012148m-62.501926 0a62.501926 62.501926 0 1 0 125.003852 0 62.501926 62.501926 0 1 0-125.003852 0Z" fill="#707070" p-id="20184"></path><path d="M746.230519 520.457481H403.361185a28.444444 28.444444 0 1 1 0-56.888888h342.869334a28.444444 28.444444 0 1 1 0 56.888888z" fill="#707070" p-id="20185"></path></svg>