<?xml version="1.0" standalone="no"?><!DOCTYPE svg PUBLIC "-//W3C//DTD SVG 1.1//EN" "http://www.w3.org/Graphics/SVG/1.1/DTD/svg11.dtd"><svg t="1766862813774" class="icon" viewBox="0 0 1024 1024" version="1.1" xmlns="http://www.w3.org/2000/svg" p-id="7490" xmlns:xlink="http://www.w3.org/1999/xlink" width="48" height="48"><path d="M1024 157.515294v78.787765h-157.515294v157.575529h-78.787765V236.303059h-157.515294V157.515294h157.515294V0h78.787765v157.515294H1024zM625.844706 769.807059c0 70.776471-33.792 128-86.136471 173.537882C468.931765 1004.303059 372.314353 1024 281.238588 1024 166.189176 1024 0 974.787765 0 832.030118c0-28.912941 9.878588-57.283765 22.829176-83.124706 54.693647-110.712471 225.761882-139.083294 335.932236-142.155294-20.239059-26.443294-39.333647-57.163294-39.333647-91.678118 0-20.299294 7.288471-33.852235 13.552941-52.886588-14.817882 1.807059-28.912941 3.072-43.068235 3.072-119.386353 0-222.750118-88.003765-222.750118-211.727059 0-116.916706 90.413176-216.606118 202.390588-241.182118A548.864 548.864 0 0 1 384.602353 0h269.010823L570.548706 48.609882H487.363765c61.018353 38.128941 91.738353 112.64 91.738353 181.549177 0 163.056941-137.878588 175.344941-137.878589 256.602353 0 79.390118 184.621176 110.772706 184.621177 283.045647zM465.317647 292.321882C465.317647 198.776471 414.780235 44.333176 300.935529 44.333176c-80.534588 0-119.928471 71.378824-119.92847 144.022589 0 93.485176 61.500235 239.977412 171.068235 239.977411 84.208941-0.060235 113.242353-60.958118 113.242353-136.011294z m73.788235 530.432c0-86.136471-80.715294-134.144-143.420235-177.874823-10.480941-1.204706-20.359529-1.204706-30.840471-1.204706-100.833882 0-251.060706 31.984941-251.060705 159.984941 0 118.121412 132.939294 163.719529 231.424 163.71953 91.678118 0 193.897412-36.924235 193.897411-144.624942z" p-id="7491"></path></svg>