<?xml version="1.0" standalone="no"?><!DOCTYPE svg PUBLIC "-//W3C//DTD SVG 1.1//EN" "http://www.w3.org/Graphics/SVG/1.1/DTD/svg11.dtd"><svg t="1767516004468" class="icon" viewBox="0 0 1024 1024" version="1.1" xmlns="http://www.w3.org/2000/svg" p-id="10769" xmlns:xlink="http://www.w3.org/1999/xlink" width="48" height="48"><path d="M812.6976 963.9424H220.672c-73.4208 0-133.12-59.6992-133.12-133.12V387.6864c0-47.0016 25.1904-90.9824 65.6896-114.7904l307.3536-180.48a132.7104 132.7104 0 0 1 138.1376 1.9968l284.672 178.5344c39.0656 24.5248 62.4128 66.6624 62.4128 112.7936v445.0816c0 73.4208-59.6992 133.12-133.12 133.12z m-284.672-828.4672c-12.4928 0-25.0368 3.2768-36.3008 9.9328L184.3712 325.888c-21.8112 12.8-35.3792 36.5056-35.3792 61.7984v443.136c0 39.5264 32.1536 71.68 71.68 71.68h592.0256c39.5264 0 71.68-32.1536 71.68-71.68V385.7408c0-24.832-12.544-47.5136-33.5872-60.7232l-284.672-178.5344a71.77216 71.77216 0 0 0-38.0928-11.008z" fill="#303135" p-id="10770"></path><path d="M682.0352 764.7232h-330.752c-16.9472 0-30.72-13.7728-30.72-30.72s13.7728-30.72 30.72-30.72h330.752c16.9472 0 30.72 13.7728 30.72 30.72s-13.7216 30.72-30.72 30.72z" fill="#FF623E" p-id="10771"></path></svg>